<svg width="18" height="18" viewBox="0 0 18 18" fill="none" xmlns="http://www.w3.org/2000/svg">
<path fill-rule="evenodd" clip-rule="evenodd" d="M16.128 9.16921C16.128 8.64286 16.0809 8.13631 15.9927 7.65039H9V10.5222H12.9963C12.8239 11.4503 12.3008 12.2374 11.5146 12.7637V14.6266H13.9137C15.3178 13.3338 16.128 11.4305 16.128 9.16921Z" fill="#0054FF"/>
<path fill-rule="evenodd" clip-rule="evenodd" d="M9.00007 16.4253C11.0048 16.4253 12.6853 15.7604 13.9138 14.6268L11.5147 12.7631C10.8497 13.2086 9.99914 13.4718 9.00007 13.4718C7.06628 13.4718 5.42949 12.1658 4.84539 10.4111H2.36462V12.335C3.58644 14.7613 6.09773 16.4253 9.00007 16.4253Z" fill="#31A752"/>
<path fill-rule="evenodd" clip-rule="evenodd" d="M4.84524 10.4111C4.69674 9.96559 4.61259 9.48957 4.61259 9.00035C4.61259 8.51113 4.69674 8.0351 4.84524 7.5896V5.66571H2.36447C1.86205 6.66808 1.57495 7.80245 1.57495 9.00035C1.57495 10.1982 1.86205 11.3326 2.36447 12.335L4.84524 10.4111Z" fill="#F9BA00"/>
<path fill-rule="evenodd" clip-rule="evenodd" d="M9.00007 4.52856C10.0899 4.52856 11.0692 4.90311 11.8381 5.63901L13.9682 3.50969C12.682 2.31097 11.0015 1.57507 9.00007 1.57507C6.09774 1.57507 3.58644 3.23909 2.36462 5.66623L4.84539 7.5893C5.42949 5.83453 7.06628 4.52856 9.00007 4.52856Z" fill="#E64234"/>
</svg>
