<svg width="24" height="24" viewBox="0 0 24 24" fill="none" xmlns="http://www.w3.org/2000/svg">
<path d="M6.26631 21C5.01469 21 4 20.02 4 18.81V10.008C4 9.34297 4.31344 8.71297 4.85 8.29797L11.0837 3.47997C11.482 3.16955 11.9829 2.99969 12.5 2.99969C13.0171 2.99969 13.518 3.16955 13.9163 3.47997L20.1489 8.29797C20.6866 8.71297 21 9.34297 21 10.008V18.81C21 20.02 19.9853 21 18.7337 21H6.26631Z" stroke="#8F98A8" stroke-width="1.7" stroke-linecap="round" stroke-linejoin="round"/>
<path d="M9.84375 21V15.5C9.84375 14.9696 10.0676 14.4609 10.4661 14.0858C10.8647 13.7107 11.4052 13.5 11.9688 13.5H13.0312C13.5948 13.5 14.1353 13.7107 14.5339 14.0858C14.9324 14.4609 15.1562 14.9696 15.1562 15.5V21" stroke="#8F98A8" stroke-width="1.7" stroke-linecap="round" stroke-linejoin="round"/>
</svg>
