<svg width="27" height="27" viewBox="0 0 27 27" fill="none" xmlns="http://www.w3.org/2000/svg">
<path d="M23.7096 16.0251L23.5926 14.8491L23.5536 14.8527L23.5158 14.8598L23.7096 16.0251ZM23.7096 16.0251L23.8278 17.201L23.8668 17.1975L23.9046 17.1916L23.7096 16.0251ZM18.9348 22.5041L19.683 21.5893L19.6735 21.5822L18.9348 22.5041ZM18.9348 22.5041L18.1867 23.4189L18.1962 23.4271L18.9348 22.5041ZM8.06636 22.5041L7.31824 21.5905L7.29933 21.6059L7.2816 21.6212L8.06636 22.5041ZM8.06636 22.5041L8.81448 23.42L8.83339 23.4047L8.85112 23.3881L8.06636 22.5041ZM3.29042 10.9761V9.79426H3.23133L3.17342 9.80017L3.29042 10.9761ZM3.29042 10.9761V12.158H3.34951L3.40861 12.1521L3.29042 10.9761ZM17.201 3.17223C17.1815 2.94491 17.1536 2.71826 17.1195 2.49266C17.083 2.24429 17.0072 2.00332 16.8949 1.77881L14.7948 2.86377C14.7676 2.81058 14.7735 2.79167 14.7888 2.88504C14.8066 2.99023 14.8219 3.13678 14.8491 3.40861L17.201 3.17223ZM17.3133 4.29501C17.3878 4.39192 17.363 4.43565 17.3216 4.20519C17.2826 3.98536 17.2519 3.67689 17.201 3.17223L14.8479 3.40743C14.8952 3.87308 14.9354 4.29147 14.9957 4.62475C15.0536 4.94386 15.1552 5.36342 15.433 5.72744L17.3133 4.29501ZM17.3133 4.29501L15.433 5.72744C15.6859 6.05936 16.0222 6.31841 16.4077 6.47825C16.7932 6.63809 17.2141 6.69303 17.6277 6.63748L17.3133 4.29501ZM18.1855 3.57998C17.9207 3.80384 17.6483 4.01867 17.3689 4.2241C17.1762 4.35765 17.1916 4.31038 17.3133 4.29501L17.6277 6.63748C18.0815 6.57602 18.4503 6.35147 18.7174 6.16473C18.9951 5.97327 19.3201 5.70616 19.6818 5.40951L18.1855 3.57998ZM19.3863 2.81176C19.1484 2.89091 18.9246 3.0074 18.7233 3.15687C18.5578 3.27506 18.3723 3.42752 18.1855 3.57998L19.6818 5.40951C19.8933 5.23696 20.008 5.14359 20.0954 5.08214C20.1723 5.02659 20.1616 5.0455 20.1061 5.06323L19.3863 2.81176ZM21.0457 2.89449C20.5208 2.66704 19.9312 2.63764 19.3863 2.81176L20.1061 5.06323L21.0457 2.89449ZM22.1637 3.77853C22.0046 3.61492 21.8402 3.45646 21.6709 3.30342C21.4851 3.13473 21.2737 2.99669 21.0445 2.89449L20.1061 5.06323C20.0517 5.03959 20.0434 5.02068 20.1144 5.08332C20.1947 5.15423 20.2999 5.25705 20.4925 5.4497L22.1637 3.77853ZM23.2203 4.83513L22.1637 3.77853L20.4925 5.4497L21.5491 6.50629L23.2203 4.83513ZM24.1043 5.95318C24.0021 5.724 23.8641 5.51255 23.6954 5.32678C23.5424 5.15785 23.3839 4.99388 23.2203 4.83513L21.5491 6.50747C21.7418 6.70012 21.8446 6.8053 21.9155 6.88567C21.9782 6.95658 21.9592 6.94831 21.9356 6.89394L24.1043 5.95318ZM24.1871 7.61252C24.3612 7.06762 24.3318 6.47806 24.1043 5.95318L21.9356 6.89394L24.1871 7.61252ZM23.4189 8.8133C23.5656 8.63864 23.7067 8.45929 23.842 8.27555C23.9672 8.10063 24.102 7.88317 24.1871 7.61252L21.9356 6.89394C21.9533 6.8384 21.9711 6.82658 21.9167 6.90458C21.8552 6.99086 21.7631 7.1055 21.5893 7.31705L23.4189 8.8133ZM22.7038 9.6867C22.6885 9.80844 22.6412 9.82262 22.7747 9.62998C22.9012 9.44679 23.0974 9.20568 23.4189 8.8133L21.5893 7.31705C21.2939 7.67871 21.0256 8.00372 20.8329 8.28146C20.6474 8.54856 20.4228 8.91731 20.3614 9.37115L22.7038 9.6867ZM22.7038 9.6867L20.3614 9.37115C20.3058 9.78474 20.3608 10.2057 20.5206 10.5912C20.6804 10.9766 20.9395 11.3129 21.2714 11.5659L22.7038 9.6867ZM23.8266 9.79898C23.481 9.77007 23.1365 9.72947 22.7937 9.67725C22.5632 9.63589 22.6069 9.61225 22.7038 9.6867L21.2714 11.5659C21.6354 11.8436 22.0538 11.9453 22.3753 12.0032C22.7074 12.0623 23.1258 12.1036 23.5914 12.1509L23.8266 9.79898ZM25.22 10.1039C24.9955 9.99162 24.7545 9.91582 24.5062 9.87935C24.2806 9.84528 24.0539 9.81848 23.8266 9.79898L23.5914 12.1509C23.7664 12.1663 23.941 12.186 24.115 12.21C24.2095 12.2265 24.1894 12.2325 24.1363 12.2053L25.22 10.1039ZM26.3345 11.3366C26.1245 10.8043 25.7285 10.3664 25.22 10.1039L24.1374 12.2076L26.3345 11.3366ZM26.5 12.7525C26.5 12.5114 26.5 12.2715 26.487 12.0682C26.475 11.8173 26.4232 11.57 26.3334 11.3354L24.1374 12.2076C24.1162 12.1521 24.1233 12.1332 24.1303 12.2277C24.1374 12.3341 24.1374 12.4818 24.1374 12.7548L26.5 12.7525ZM26.5 14.2464V12.7525H24.1363V14.2464H26.5ZM26.3345 15.6622C26.4385 15.3987 26.4728 15.1458 26.487 14.9295C26.5 14.7274 26.5 14.4875 26.5 14.2464H24.1363C24.1363 14.5194 24.1363 14.6671 24.1292 14.7735C24.1221 14.868 24.115 14.8491 24.1363 14.7936L26.3345 15.6622ZM25.22 16.8949C25.7285 16.6325 26.1245 16.1945 26.3345 15.6622L24.1374 14.7948L25.22 16.8949ZM23.8266 17.1999C24.0677 17.1762 24.3053 17.1526 24.5062 17.1195C24.7189 17.084 24.9671 17.0249 25.22 16.8949L24.1374 14.7948C24.1894 14.7676 24.2095 14.7735 24.1162 14.7888C23.9422 14.8138 23.7676 14.8339 23.5926 14.8491L23.8266 17.1999ZM22.705 17.3121C22.6069 17.3866 22.5632 17.363 22.7937 17.3216C23.0135 17.2826 23.3219 17.2507 23.8266 17.1999L23.5914 14.8479C23.1269 14.8952 22.7074 14.9354 22.3753 14.9957C22.055 15.0536 21.6354 15.1552 21.2714 15.433L22.705 17.3121ZM22.705 17.3121L21.2714 15.433C20.9395 15.6859 20.6804 16.0222 20.5206 16.4077C20.3608 16.7932 20.3058 17.2141 20.3614 17.6277L22.705 17.3121ZM23.4189 18.1844C23.195 17.9199 22.9802 17.6479 22.7747 17.3689C22.6412 17.1762 22.6896 17.1904 22.705 17.3121L20.3614 17.6277C20.4228 18.0815 20.6474 18.4503 20.8341 18.7174C21.0268 18.9951 21.2939 19.3201 21.5893 19.6818L23.4189 18.1844ZM24.1871 19.3851C24.1078 19.1476 23.9913 18.9242 23.842 18.7233C23.7238 18.5566 23.5713 18.3723 23.4189 18.1844L21.5893 19.6818C21.7619 19.8933 21.8552 20.0068 21.9167 20.0943C21.9723 20.1711 21.9545 20.1616 21.9356 20.1061L24.1871 19.3851ZM24.1043 21.0457C24.3321 20.5204 24.3615 19.9304 24.1871 19.3851L21.9356 20.1061L24.1043 21.0457ZM23.2203 22.1637C23.3917 21.9923 23.5607 21.8245 23.6954 21.6709C23.8372 21.5078 23.9909 21.3057 24.1043 21.0445L21.9356 20.1049C21.9592 20.0505 21.9782 20.0434 21.9155 20.1144C21.8446 20.1947 21.7418 20.2987 21.5491 20.4925L23.2203 22.1637ZM22.1637 23.2191L23.2203 22.1637L21.5491 20.4925L20.4925 21.548L22.1637 23.2191ZM21.0457 24.1043C21.2749 24.0018 21.4864 23.8633 21.6721 23.6942C21.8245 23.5607 21.9935 23.3905 22.1637 23.2191L20.4925 21.548C20.3699 21.6736 20.2438 21.7957 20.1144 21.9143C20.0434 21.9782 20.0517 21.9592 20.1061 21.9356L21.0457 24.1043ZM19.3863 24.1871C19.9312 24.3612 20.5208 24.3318 21.0457 24.1043L20.1061 21.9356L19.3863 24.1871ZM18.1855 23.4189C18.3723 23.5713 18.5566 23.7238 18.7233 23.842C18.8982 23.9661 19.1157 24.1008 19.3863 24.1871L20.1061 21.9356C20.1616 21.9533 20.1723 21.9711 20.0943 21.9167C19.9538 21.8114 19.8162 21.7023 19.6818 21.5893L18.1855 23.4189ZM17.3133 22.705C17.1916 22.6873 17.1762 22.64 17.3689 22.7736C17.5521 22.9012 17.792 23.0962 18.1844 23.4177L19.6818 21.5893C19.3201 21.2927 18.9951 21.0256 18.7174 20.8329C18.4503 20.6462 18.0815 20.4228 17.6277 20.3614L17.3133 22.705ZM17.3133 22.705L17.6277 20.3614C17.2141 20.3058 16.7932 20.3608 16.4077 20.5206C16.0222 20.6804 15.6859 20.9395 15.433 21.2714L17.3133 22.705ZM17.1999 23.8266C17.2507 23.3219 17.2826 23.0123 17.3216 22.7937C17.363 22.5632 17.3866 22.6057 17.3121 22.7038L15.433 21.2702C15.1552 21.6342 15.0536 22.0538 14.9957 22.3741C14.9366 22.7074 14.8964 23.1258 14.8491 23.5914L17.1999 23.8266ZM16.8938 25.22C17.0238 24.9671 17.0829 24.7189 17.1183 24.5062C17.1538 24.3053 17.175 24.0677 17.1999 23.8266L14.8491 23.5914C14.8335 23.7669 14.813 23.9407 14.7877 24.115C14.7723 24.2095 14.7664 24.1894 14.7936 24.1363L16.8938 25.22ZM15.6634 26.3345C16.1948 26.124 16.6319 25.7281 16.8938 25.22L14.7948 24.1374L15.6634 26.3345ZM14.2452 26.5C14.4875 26.5 14.7274 26.5 14.9307 26.487C15.1458 26.4728 15.3987 26.4409 15.6634 26.3345L14.7948 24.1374C14.8503 24.1162 14.8692 24.1233 14.7747 24.1303C14.5991 24.1376 14.4233 24.14 14.2475 24.1374L14.2452 26.5ZM12.7525 26.5H14.2452L14.2464 24.1363H12.7525V26.5ZM11.3366 26.3345C11.6002 26.4385 11.8531 26.4728 12.0694 26.487C12.2715 26.5 12.5114 26.5 12.7525 26.5V24.1363C12.4795 24.1363 12.3317 24.1363 12.2254 24.1292C12.1308 24.1221 12.1497 24.115 12.2053 24.1363L11.3366 26.3345ZM10.1039 25.22C10.3664 25.7285 10.8043 26.1245 11.3366 26.3345L12.2053 24.1363L10.1039 25.22ZM9.79898 23.8266C9.82262 24.0677 9.84626 24.3053 9.87935 24.5062C9.91481 24.7189 9.9739 24.9671 10.1039 25.22L12.2076 24.1374C12.2348 24.1894 12.2289 24.2095 12.2135 24.1162C12.1886 23.9422 12.1685 23.7676 12.1533 23.5926L9.79898 23.8266ZM9.6867 22.7038C9.61225 22.6069 9.63589 22.562 9.67725 22.7937C9.71625 23.0123 9.74816 23.3219 9.79898 23.8266L12.1509 23.5914C12.1036 23.1258 12.0634 22.7074 12.0032 22.3741C11.9453 22.055 11.8436 21.6354 11.5659 21.2714L9.6867 22.7038ZM9.6867 22.7038L11.5659 21.2714C11.3129 20.9395 10.9766 20.6804 10.5912 20.5206C10.2057 20.3608 9.78474 20.3058 9.37115 20.3614L9.6867 22.7038ZM8.8133 23.4189C9.20687 23.0974 9.44679 22.9012 9.62998 22.7747C9.82262 22.6412 9.80844 22.6885 9.6867 22.7038L9.37115 20.3614C8.91731 20.4228 8.54856 20.6474 8.28146 20.8341C8.00372 21.0256 7.67871 21.2927 7.31705 21.5893L8.8133 23.4189ZM7.61252 24.1871C7.85044 24.1079 8.07424 23.9914 8.27555 23.842C8.44101 23.7238 8.62657 23.5713 8.8133 23.4189L7.31824 21.5905C7.18342 21.7035 7.04667 21.8126 6.90576 21.9179C6.82894 21.9734 6.83958 21.9557 6.89513 21.9368L7.61252 24.1871ZM5.95318 24.1043C6.47806 24.3318 7.06762 24.3612 7.61252 24.1871L6.89276 21.9356L5.95318 24.1043ZM4.83394 23.2203C5.00532 23.3917 5.17432 23.5607 5.32797 23.6954C5.48988 23.8372 5.69198 23.9921 5.95436 24.1055L6.89276 21.9356C6.94713 21.9592 6.9554 21.9782 6.88449 21.9155C6.75505 21.7969 6.62893 21.6748 6.50629 21.5491L4.83394 23.2203ZM3.77853 22.1637L4.83513 23.2203L6.50629 21.5491L5.4497 20.4925L3.77853 22.1637ZM2.89449 21.0457C3.00677 21.3057 3.1616 21.509 3.30342 21.6721C3.43815 21.8245 3.60716 21.9935 3.77853 22.1637L5.4497 20.4925C5.32408 20.3699 5.20191 20.2438 5.08332 20.1144C5.02068 20.0434 5.03959 20.0517 5.06323 20.1061L2.89449 21.0457ZM2.81176 19.3863C2.63764 19.9312 2.66704 20.5208 2.89449 21.0457L5.06323 20.1061L2.81176 19.3863ZM3.57998 18.1855C3.43321 18.3602 3.2921 18.5395 3.15687 18.7233C3.0074 18.9246 2.89091 19.1484 2.81176 19.3863L5.06323 20.1061C5.04432 20.1616 5.02777 20.1723 5.08214 20.0943C5.14359 20.008 5.23578 19.8933 5.40951 19.6818L3.57998 18.1855ZM4.29383 17.3121C4.31038 17.1904 4.35765 17.1762 4.2241 17.3689C4.09764 17.5521 3.90145 17.7932 3.57998 18.1855L5.40951 19.6818C5.70498 19.3201 5.97327 18.9951 6.16591 18.7174C6.35147 18.4503 6.57602 18.0815 6.63748 17.6277L4.29383 17.3121ZM4.29383 17.3121L6.63748 17.6277C6.69303 17.2141 6.63809 16.7932 6.47825 16.4077C6.31841 16.0222 6.05936 15.6859 5.72744 15.433L4.29383 17.3121ZM3.17105 17.1999C3.67689 17.2507 3.98654 17.2826 4.20519 17.3216C4.43565 17.363 4.39192 17.3866 4.29383 17.3121L5.72744 15.433C5.36342 15.1552 4.94504 15.0536 4.62357 14.9957C4.29147 14.9366 3.87308 14.8952 3.40624 14.8479L3.17105 17.1999ZM1.77881 16.8949C2.03173 17.0249 2.27992 17.084 2.49266 17.1195C2.69358 17.1526 2.93113 17.1774 3.17223 17.201L3.40624 14.8479C3.23121 14.8331 3.0578 14.8134 2.88386 14.7888C2.78931 14.7723 2.8094 14.7664 2.86258 14.7936L1.77881 16.8949ZM0.665486 15.6634C0.875541 16.1957 1.27153 16.6337 1.77999 16.8961L2.86377 14.7948L0.665486 15.6634ZM0.500024 14.2475C0.500024 14.4886 0.500024 14.7286 0.513025 14.9318C0.527207 15.1469 0.5603 15.3999 0.666668 15.6646L2.86377 14.7936C2.88504 14.8491 2.87795 14.868 2.87204 14.7735C2.8644 14.5983 2.86165 14.4229 2.86377 14.2475H0.500024ZM0.500024 12.7537V14.2475H2.86377V12.7537H0.500024ZM0.665486 11.3366C0.576073 11.5712 0.524607 11.8186 0.513025 12.0694C0.498842 12.2726 0.500024 12.5126 0.500024 12.7548H2.86377C2.86377 12.4806 2.86377 12.3329 2.87204 12.2265C2.87795 12.132 2.88504 12.1509 2.86377 12.2065L0.665486 11.3366ZM1.77999 10.1063C1.27196 10.3681 0.876022 10.8052 0.665486 11.3366L2.86377 12.2065L1.77999 10.1063ZM3.17342 9.79898C2.93231 9.8238 2.69476 9.84626 2.49384 9.88171C2.2811 9.91717 2.03291 9.97626 1.77999 10.1063L2.86377 12.2065C2.81058 12.2336 2.79167 12.2277 2.88504 12.2124C3.05897 12.1874 3.23356 12.1673 3.40861 12.1521L3.17342 9.79898ZM4.29619 9.68789C4.39429 9.61343 4.43802 9.63707 4.20637 9.67843C3.98772 9.71743 3.67807 9.74934 3.17342 9.80017L3.40861 12.1521C3.87308 12.1048 4.29265 12.0646 4.62594 12.0044C4.94622 11.9464 5.36579 11.8448 5.7298 11.5671L4.29619 9.68789ZM4.29619 9.68789L5.7298 11.5671C6.06151 11.314 6.32033 10.9776 6.47996 10.5922C6.63959 10.2067 6.69434 9.78582 6.63866 9.37233L4.29619 9.68789ZM3.58116 8.81448C3.90263 9.20687 4.09882 9.44797 4.22646 9.63116C4.36001 9.8238 4.31274 9.80962 4.29619 9.68789L6.63866 9.37233C6.5772 8.91849 6.35383 8.55093 6.16709 8.28264C5.97445 8.0049 5.70616 7.67989 5.4107 7.31824L3.58116 8.81448ZM2.81295 7.61252C2.89922 7.88435 3.03277 8.10063 3.15805 8.27673C3.27624 8.4422 3.4287 8.62775 3.58116 8.81448L5.4107 7.31824C5.29775 7.18342 5.18858 7.04667 5.08332 6.90576C5.02777 6.82894 5.04668 6.8384 5.06441 6.89394L2.81295 7.61252ZM2.89568 5.95436C2.66851 6.47889 2.63912 7.06798 2.81295 7.61252L5.06441 6.89394L2.89568 5.95436ZM3.77972 4.83513C3.60834 5.0065 3.43934 5.17432 3.3046 5.32797C3.13591 5.51373 2.99787 5.72518 2.89568 5.95436L5.06441 6.89394C5.04077 6.94831 5.02186 6.95658 5.0845 6.88449C5.15541 6.80412 5.25824 6.70012 5.45088 6.50629L3.77972 4.83513ZM4.83631 3.77972L3.77972 4.83513L5.45088 6.50629L6.50866 5.45088L4.83631 3.77972ZM5.95436 2.89449C5.7251 2.99705 5.51365 3.13549 5.32797 3.3046C5.15903 3.45766 4.99506 3.61612 4.83631 3.77972L6.50866 5.45088C6.7013 5.25705 6.8053 5.15423 6.88567 5.0845C6.95658 5.02068 6.94831 5.03959 6.89394 5.06323L5.95436 2.89449ZM7.6137 2.81176C7.0688 2.63764 6.47924 2.66704 5.95436 2.89449L6.89394 5.06323L7.6137 2.81176ZM8.8133 3.57998C8.62657 3.42752 8.44338 3.27624 8.27673 3.15805C8.0755 3.00816 7.85169 2.89127 7.6137 2.81176L6.89394 5.06323C6.8384 5.0455 6.82776 5.02777 6.90576 5.08214C6.99204 5.14478 7.10668 5.23696 7.31824 5.4107L8.8133 3.57998ZM9.68789 4.29501C9.80962 4.31156 9.8238 4.35883 9.63116 4.22528C9.35214 4.01983 9.08016 3.805 8.81567 3.58116L7.31824 5.4107C7.67989 5.70616 8.00372 5.97327 8.28146 6.16709C8.54856 6.35265 8.91731 6.57602 9.37115 6.63748L9.68789 4.29501ZM9.68789 4.29501L9.37233 6.63748C9.78592 6.69303 10.2069 6.63809 10.5923 6.47825C10.9778 6.31841 11.3141 6.05936 11.5671 5.72744L9.68789 4.29501ZM9.80017 3.17223C9.74934 3.67807 9.71743 3.98772 9.67843 4.20637C9.63707 4.43684 9.61343 4.39311 9.68789 4.29501L11.5671 5.72744C11.8448 5.36342 11.9464 4.94504 12.0044 4.62475C12.0634 4.29265 12.106 3.87308 12.1521 3.40743L9.80017 3.17223ZM10.1051 1.77999C9.9928 2.00451 9.917 2.24548 9.88053 2.49384C9.84744 2.69476 9.8238 2.93231 9.80017 3.17342L12.1521 3.40743C12.1675 3.23244 12.1872 3.05905 12.2112 2.88504C12.2277 2.79049 12.2336 2.81176 12.2065 2.86377L10.1051 1.77999ZM11.3378 0.665486C10.8055 0.875541 10.3675 1.27153 10.1051 1.77999L12.2065 2.86377L11.3378 0.665486ZM12.7537 0.500024C12.5126 0.500024 12.2726 0.500024 12.0694 0.513025C11.8186 0.524607 11.5712 0.576073 11.3366 0.665486L12.2076 2.86377C12.1521 2.88504 12.1332 2.87795 12.2277 2.87204C12.3341 2.86495 12.4818 2.86377 12.7548 2.86377L12.7537 0.500024ZM14.2475 0.500024H12.7537V2.86377H14.2475V0.500024ZM15.6634 0.665486C15.4288 0.576073 15.1815 0.524607 14.9307 0.513025C14.7297 0.498842 14.4898 0.500024 14.2487 0.500024V2.86377C14.5217 2.86377 14.6695 2.86377 14.7758 2.87204C14.8704 2.87795 14.8503 2.88504 14.7948 2.86377L15.6634 0.665486ZM16.8961 1.77999C16.6337 1.27153 16.1957 0.875541 15.6634 0.665486L14.7948 2.86377L16.8961 1.77999ZM17.0462 13.5006C17.0462 14.441 16.6727 15.3428 16.0077 16.0077C15.3428 16.6727 14.441 17.0462 13.5006 17.0462V19.41C15.0679 19.41 16.5709 18.7874 17.6791 17.6791C18.7874 16.5709 19.41 15.0679 19.41 13.5006H17.0462ZM13.5006 9.95499C14.441 9.95499 15.3428 10.3285 16.0077 10.9935C16.6727 11.6584 17.0462 12.5602 17.0462 13.5006H19.41C19.41 11.9333 18.7874 10.4303 17.6791 9.32206C16.5709 8.21384 15.0679 7.59125 13.5006 7.59125V9.95499ZM9.95499 13.5006C9.95499 12.5602 10.3285 11.6584 10.9935 10.9935C11.6584 10.3285 12.5602 9.95499 13.5006 9.95499V7.59125C11.9333 7.59125 10.4303 8.21384 9.32206 9.32206C8.21384 10.4303 7.59125 11.9333 7.59125 13.5006H9.95499ZM13.5006 17.0462C12.5602 17.0462 11.6584 16.6727 10.9935 16.0077C10.3285 15.3428 9.95499 14.441 9.95499 13.5006H7.59125C7.59125 15.0679 8.21384 16.5709 9.32206 17.6791C10.4303 18.7874 11.9333 19.41 13.5006 19.41V17.0462Z" fill="#8F98A8"/>
</svg>
